<?xml version="1.0" encoding="utf-8"?>
<!-- Generator: Adobe Illustrator 19.2.1, SVG Export Plug-In . SVG Version: 6.00 Build 0)  -->
<svg version="1.1" id="layer" xmlns="http://www.w3.org/2000/svg" xmlns:xlink="http://www.w3.org/1999/xlink" x="0px" y="0px"
	 viewBox="0 0 652 652" style="enable-background:new 0 0 652 652;" xml:space="preserve">
<style type="text/css">
	.st0{fill:#231815;}
	.st1{fill:#0091DA;}
</style>
<g>
	<path class="st0" d="M610.2,352.1h1.9l2.4,6.7l0.9,2.5h0.1l0.9-2.5l2.4-6.7h1.9v12.5H619v-6.9c0-1.1,0.1-2.6,0.2-3.7h-0.1l-1,2.8
		l-2.4,6.5h-0.9l-2.4-6.5l-1-2.8h-0.1c0.1,1.1,0.2,2.6,0.2,3.7v6.9h-1.5V352.1z M602.6,353.4h-3.8v-1.3h9.1v1.3h-3.8v11.1h-1.6
		V353.4z"/>
	<path class="st1" d="M570,400.5c-11.5,0-19.8-6.2-21.1-16.2h7.9c1,5.5,6.4,8.9,13.2,8.9c7.3,0,11.8-3.6,11.8-7.7
		c0-3.3-1.3-5.7-12.8-7.3c-11.5-1.6-18.4-4.4-18.4-13.3c0-6.8,5.9-14.1,18.5-14.1c10.9,0,18.3,5.5,19.3,14.8h-7.9
		c-1.1-5.1-5.6-7.6-11.4-7.6c-6.2,0-10.7,2.9-10.7,6.6c0,3.4,2.7,4.6,11.9,6.1c10.5,1.7,19.1,3.7,19.1,14.4
		C589.4,394.6,581.3,400.5,570,400.5"/>
	<path class="st1" d="M540.3,399.3h-7.7v-28.7c0-7.3-4-12.6-11.6-12.6c-7.2,0-12.4,5.3-12.4,12.4v28.9h-7.8v-47.3h7.5v5.1
		c3.2-3.9,8.1-6.3,13.8-6.3c11.6,0,18.2,8.3,18.2,20V399.3z"/>
	<path class="st1" d="M489.1,375.8c0,13.6-10.3,24.6-23.8,24.6c-13.4,0-23.8-11-23.8-24.6c0-13.8,10.4-25,23.8-25
		C478.8,350.9,489.1,362.1,489.1,375.8 M481.3,375.8c0-9.8-7.2-17.8-16-17.8c-8.7,0-15.9,8-15.9,17.8c0,9.6,7.2,17.4,15.9,17.4
		C474.1,393.3,481.3,385.5,481.3,375.8"/>
	<path class="st1" d="M432.4,344.9h-7.8v-9.3h7.8V344.9z M432.4,399.3h-7.8v-47.3h7.8V399.3z"/>
	<path class="st1" d="M413.2,399.3c-11,1.3-18.6-5.2-18.6-17.3v-22.6h-6.4v-7.4h6.4V342h7.7v10.1H413v7.4h-10.7v22.6
		c0,8.4,5.1,10.5,10.9,10.1V399.3z"/>
	<path class="st1" d="M380.8,399.3h-7.5v-7.6c-3.3,4.9-9.4,8.8-16.3,8.8c-13.6,0-23.7-11.1-23.7-24.8c0-13.7,10.1-24.9,23.7-24.9
		c7,0,13,4,16.3,8.7v-7.5h7.5V399.3z M357,358.3c-8.9,0-15.9,7.9-15.9,17.5c0,9.5,7,17.3,15.9,17.3c8.7,0,16.1-7.8,16.1-17.3
		C373,366.2,365.7,358.3,357,358.3"/>
	<path class="st1" d="M328.6,358.7c-8.2-0.5-15.1,3.9-15.1,13.3v27.4h-7.8v-47.3h7.5v5.3c3.6-5.1,10-7.1,15.4-6.4V358.7z"/>
	<path class="st1" d="M293.1,397.1c0,15.2-9.8,25.4-24.3,25.4c-11.2,0-19.9-6-22.3-15.6h8.2c3.1,7.1,10.6,8.1,14.1,8.1
		c12.1,0,16.5-9.4,16.5-17.9v-5c-3.4,4.6-9.3,8.4-16.1,8.4c-13.6,0-23.7-11.1-23.7-24.8c0-13.7,10.1-24.9,23.7-24.9
		c7,0,13,4,16.3,8.7v-7.5h7.5V397.1z M269.2,358.1c-8.9,0-15.9,7.9-15.9,17.7c0,9.6,7,17.5,15.9,17.5c8.7,0,16.1-7.9,16.1-17.5
		C285.3,366,277.9,358.1,269.2,358.1"/>
	<path class="st1" d="M237,384.7c-3.3,10.1-11.4,15.8-22.3,15.8c-13.6,0-24.2-10.8-24.2-24.7c0-13.7,10.6-24.9,23.8-24.9
		c12.2,0,23.9,10.1,23.9,26.9h-39.7c1,9.8,8.5,15.6,16.3,15.6c6.7,0,11.5-3.2,14-8.7H237z M229.5,370.8c-1.9-7.7-8.3-12.9-15.2-12.9
		c-6.5,0-13.4,4.8-15.4,12.9H229.5z"/>
	<path class="st1" d="M182.7,399.3c-11,1.3-18.6-5.2-18.6-17.3v-22.6h-6.4v-7.4h6.4V342h7.7v10.1h10.7v7.4h-10.7v22.6
		c0,8.4,5.1,10.5,10.9,10.1V399.3z"/>
	<path class="st1" d="M150.3,399.3h-7.7v-28.7c0-7.3-4-12.6-11.6-12.6c-7.2,0-12.4,5.3-12.4,12.4v28.9h-7.8v-47.3h7.5v5.1
		c3.2-3.9,8.1-6.3,13.8-6.3c11.6,0,18.2,8.3,18.2,20V399.3z"/>
	<path class="st1" d="M98.2,399.3h-7.8v-47.3h7.8V399.3z M98.2,335.6h-7.8v9.3h7.8V335.6z"/>
	<path class="st0" d="M544,237.5c-15.4-0.9-28.5,7.3-28.5,25V314h-14.7V225H515v10c6.7-9.5,18.8-13.3,29-12.1V237.5z"/>
	<path class="st0" d="M478.2,286.3c-6.2,19-21.4,29.7-41.9,29.7c-25.5,0-45.6-20.4-45.6-46.5c0-25.7,20-46.8,44.7-46.8
		c23,0,45,19,44.9,50.6h-74.7c1.9,18.5,16,29.4,30.7,29.4c12.6,0,21.6-6,26.4-16.4H478.2z M464.1,260.3
		c-3.6-14.5-15.7-24.2-28.6-24.2c-12.3,0-25.2,9-29,24.2H464.1z"/>
	<polygon class="st0" points="345.7,291.9 364.5,225 379.9,225 353.3,314 337.9,314 318.9,245.9 300,314 284.8,314 258.2,225 
		273.6,225 292.5,291.9 311.5,225 326.7,225 	"/>
</g>
<g>
	<path class="st0" d="M247.3,269.8c0,25.6-19.3,46.3-44.7,46.3c-25.2,0-44.7-20.7-44.7-46.3c0-25.9,19.5-47,44.7-47
		C228,222.8,247.3,243.8,247.3,269.8 M232.7,269.8c0-18.5-13.5-33.5-30-33.5c-16.4,0-29.9,15-29.9,33.5c0,18.1,13.5,32.8,29.9,32.8
		C219.2,302.6,232.7,287.9,232.7,269.8"/>
	<path class="st1" d="M84.9,273.7H27c-3.6,0-6.4-2.9-6.4-6.4c0-3.6,2.9-6.4,6.4-6.4h57.9c3.6,0,6.4,2.9,6.4,6.4
		C91.4,270.9,88.5,273.7,84.9,273.7"/>
</g>
<g>
	<path class="st0" d="M56.2,364.8c-3.6,0-6.4-2.9-6.4-6.4v-73.8c0-3.1,2.2-5.7,5.2-6.3c3-0.6,6,1,7.2,3.8
		c5.5,12.9,18.1,21.3,32.1,21.3c19.2,0,34.9-15.7,34.9-34.9c0-19.2-15.6-34.9-34.9-34.9c-13.3,0-25.2,7.4-31.2,19.3
		c-1.6,3.2-5.5,4.5-8.6,2.9c-3.2-1.6-4.5-5.5-2.9-8.7c8.2-16.3,24.5-26.4,42.7-26.4c26.3,0,47.8,21.4,47.8,47.8
		c0,26.4-21.4,47.8-47.8,47.8c-11.9,0-23.1-4.4-31.6-12v54C62.7,361.9,59.8,364.8,56.2,364.8"/>
</g>
</svg>
